<?xml version="1.0" standalone="no"?>
<svg version="1.2" xmlns="http://www.w3.org/2000/svg" xmlns:xlink="http://www.w3.org/1999/xlink" overflow="visible" preserveAspectRatio="none" viewBox="0 0 59 104" xml:space="preserve" y="0px" x="0px" id="Layer_1_1544706758780" width="44" height="79"><g transform="translate(1, 1)"><style type="text/css">
	.st0_1544706758780{fill:#FFFFFF;}
</style><g>
	<g>
		<path d="M54.3,40.2c-1.6-1.2-3.6-1.7-6.2-1.5c0-0.2-0.1-0.4-0.2-0.6c-1.8-3.5-4.1-5.6-6.9-6.4c-3.8-1-6.9,0.9-7.2,1.2&#10;&#9;&#9;&#9;c-1,0.7-1.3,2-0.6,3c0.7,1,2,1.3,3,0.6c0,0,1.8-1.1,3.7-0.6c1.6,0.4,2.9,1.8,4.1,4.1c0,0,0.1,0.1,0.1,0.1&#10;&#9;&#9;&#9;c-0.1,0.1-0.1,0.3-0.2,0.4L40.5,51c0,0,3,4.9,3.3,4l4-11.9c1.8-0.3,3.1-0.1,3.9,0.5c0.9,0.7,1,1.9,1,2c0,12.5-6.3,13-6.6,13&#10;&#9;&#9;&#9;c-1.2,0-2.2,1-2.2,2.2c0,1.2,1,2.2,2.2,2.2c0.2,0,3.6-0.1,6.6-3.1v7.5c0,10.4-1.2,12.7-2,14.2c-2.4,4.8-2.4,6.6-2.4,11.8&#10;&#9;&#9;&#9;c0,1.2,1,2.2,2.2,2.2c1.2,0,2.2-1,2.2-2.2c0-5.1,0-6,2-9.9c1-1.9,2.4-4.8,2.4-16.2V45.6C57,45.3,56.9,42.2,54.3,40.2z" class="st0_1544706758780" vector-effect="non-scaling-stroke" style="fill: rgb(33, 52, 255);"/>
		<path d="M15.4,102c-1.2,0-2.2-1-2.2-2.2V89.1c0-0.9-1.2-2.5-2.5-4.1C8,81.6,4.4,76.9,4.4,69.5V54.4&#10;&#9;&#9;&#9;c-0.2-2.1-3.5-30.3-4.2-39.1c-0.5-5.9,0.1-9.4,2-11.4c1.1-1.2,2.6-1.8,4.4-1.8c4.3,0,7,3.5,9,11.6c0.9,3.7,2.8,10.3,4.2,15.4&#10;&#9;&#9;&#9;c2.4-7.7,5.9-19.1,6.6-21.2c1.1-3.2,2.7-8,8.7-8c2,0,3.6,0.6,4.7,1.9c2.3,2.6,1.7,6.9,1.2,10.4l-0.1,1c-0.3,2.7-5.4,28.4-7.3,38&#10;&#9;&#9;&#9;c-0.4,1.9-2.1,5.4-3.3,5.2c-1.2-0.2-2-1.4-1.7-2.6c2.6-13.2,7.6-38.7,8-41.2l0.1-1c0.3-2.3,0.8-5.9-0.2-7&#10;&#9;&#9;&#9;c-0.1-0.1-0.4-0.4-1.4-0.4c-2.5,0-3.2,1.4-4.5,4.9c-1.1,3.2-8.7,28-8.8,28.3c-0.3,0.9-1.1,1.7-2.1,1.5c-1,0-1.8-0.7-2.1-1.6&#10;&#9;&#9;&#9;c0-0.2-4.6-16.1-6.3-22.7C9.3,6.5,7.2,6.5,6.6,6.5c-0.9,0-1.1,0.3-1.2,0.4C4.8,7.4,4.1,9.2,4.5,15c0.7,9,4.2,38.8,4.2,39.1&#10;&#9;&#9;&#9;c0,0.1,0,0.2,0,0.3v15.2c0,5.9,2.9,9.6,5.4,12.8c1.8,2.3,3.4,4.3,3.4,6.8v10.7C17.5,101,16.6,102,15.4,102z" class="st0_1544706758780" vector-effect="non-scaling-stroke" style="fill: rgb(33, 52, 255);"/>
		<path d="M43.4,50.8c-2-2.4-4.5-3.6-7.1-3.3c-2.9,0.3-5.5,2.4-7.2,5.5c-6.9-5.9-15.1-7.2-15.5-7.3&#10;&#9;&#9;&#9;c-1.2-0.2-2.3,0.6-2.5,1.8c-0.2,1.2,0.6,2.3,1.8,2.5c0.1,0,6.7,1.1,12.5,5.6c-2,0.6-4.2,0.9-5.6,0.9c-1.2,0-2.2,1-2.2,2.2&#10;&#9;&#9;&#9;c0,1.2,1,2.2,2.2,2.2c1,0,10.2-0.2,12.9-5.5c1-2,2.6-3.3,4-3.5c1.1-0.1,2.2,0.5,3.3,1.7c1.4,1.7,1.6,6.2-0.8,11.3&#10;&#9;&#9;&#9;c-1.3,2.6-6.2,11.3-17.3,11.3c-1.2,0-2.2,1-2.2,2.2s1,2.2,2.2,2.2c4.3,0,8.3-1.2,11.7-3.2c-0.1,1.6-0.3,3.2-0.7,4.9&#10;&#9;&#9;&#9;c-0.3,1.2,0.5,2.3,1.7,2.6c0.2,0,0.3,0,0.5,0c1,0,1.9-0.7,2.1-1.7c0.7-3.3,1-6.5,1-9.4c2-2,3.6-4.3,4.9-7&#10;&#9;&#9;&#9;C46.1,60.5,46.1,54.2,43.4,50.8z" class="st0_1544706758780" vector-effect="non-scaling-stroke" style="fill: rgb(33, 52, 255);"/>
	</g>
</g></g></svg>